<svg id="visual" viewBox="0 0 4000 4000" width="4000" height="4000" xmlns="http://www.w3.org/2000/svg" xmlns:xlink="http://www.w3.org/1999/xlink" version="1.1"><rect x="0" y="0" width="4000" height="4000" fill="#001220"></rect><path d="M0 2213L95.2 2259.2C190.3 2305.3 380.7 2397.7 571.2 2429.3C761.7 2461 952.3 2432 1142.8 2480.3C1333.3 2528.7 1523.7 2654.3 1714.2 2662.7C1904.7 2671 2095.3 2562 2285.8 2463.7C2476.3 2365.3 2666.7 2277.7 2857.2 2291.5C3047.7 2305.3 3238.3 2420.7 3428.8 2488.8C3619.3 2557 3809.7 2578 3904.8 2588.5L4000 2599L4000 4001L3904.8 4001C3809.7 4001 3619.3 4001 3428.8 4001C3238.3 4001 3047.7 4001 2857.2 4001C2666.7 4001 2476.3 4001 2285.8 4001C2095.3 4001 1904.7 4001 1714.2 4001C1523.7 4001 1333.3 4001 1142.8 4001C952.3 4001 761.7 4001 571.2 4001C380.7 4001 190.3 4001 95.2 4001L0 4001Z" fill="#fa7268"></path><path d="M0 2859L95.2 2890C190.3 2921 380.7 2983 571.2 2938.7C761.7 2894.3 952.3 2743.7 1142.8 2708.3C1333.3 2673 1523.7 2753 1714.2 2739.3C1904.7 2725.7 2095.3 2618.3 2285.8 2628.8C2476.3 2639.3 2666.7 2767.7 2857.2 2758.7C3047.7 2749.7 3238.3 2603.3 3428.8 2614.5C3619.3 2625.7 3809.7 2794.3 3904.8 2878.7L4000 2963L4000 4001L3904.8 4001C3809.7 4001 3619.3 4001 3428.8 4001C3238.3 4001 3047.7 4001 2857.2 4001C2666.7 4001 2476.3 4001 2285.8 4001C2095.3 4001 1904.7 4001 1714.2 4001C1523.7 4001 1333.3 4001 1142.8 4001C952.3 4001 761.7 4001 571.2 4001C380.7 4001 190.3 4001 95.2 4001L0 4001Z" fill="#ea5767"></path><path d="M0 3105L95.2 3090.7C190.3 3076.3 380.7 3047.7 571.2 3055C761.7 3062.3 952.3 3105.7 1142.8 3042C1333.3 2978.3 1523.7 2807.7 1714.2 2799.5C1904.7 2791.3 2095.3 2945.7 2285.8 2966.8C2476.3 2988 2666.7 2876 2857.2 2814.5C3047.7 2753 3238.3 2742 3428.8 2730.5C3619.3 2719 3809.7 2707 3904.8 2701L4000 2695L4000 4001L3904.8 4001C3809.7 4001 3619.3 4001 3428.8 4001C3238.3 4001 3047.7 4001 2857.2 4001C2666.7 4001 2476.3 4001 2285.8 4001C2095.3 4001 1904.7 4001 1714.2 4001C1523.7 4001 1333.3 4001 1142.8 4001C952.3 4001 761.7 4001 571.2 4001C380.7 4001 190.3 4001 95.2 4001L0 4001Z" fill="#d73b67"></path><path d="M0 3275L95.2 3261.3C190.3 3247.7 380.7 3220.3 571.2 3193C761.7 3165.7 952.3 3138.3 1142.8 3102.5C1333.3 3066.7 1523.7 3022.3 1714.2 3048.2C1904.7 3074 2095.3 3170 2285.8 3190.3C2476.3 3210.7 2666.7 3155.3 2857.2 3134.7C3047.7 3114 3238.3 3128 3428.8 3132.7C3619.3 3137.3 3809.7 3132.7 3904.8 3130.3L4000 3128L4000 4001L3904.8 4001C3809.7 4001 3619.3 4001 3428.8 4001C3238.3 4001 3047.7 4001 2857.2 4001C2666.7 4001 2476.3 4001 2285.8 4001C2095.3 4001 1904.7 4001 1714.2 4001C1523.7 4001 1333.3 4001 1142.8 4001C952.3 4001 761.7 4001 571.2 4001C380.7 4001 190.3 4001 95.2 4001L0 4001Z" fill="#c62368"></path><path d="M0 3466L95.2 3410.2C190.3 3354.3 380.7 3242.7 571.2 3190.8C761.7 3139 952.3 3147 1142.8 3158.7C1333.3 3170.3 1523.7 3185.7 1714.2 3188.2C1904.7 3190.7 2095.3 3180.3 2285.8 3192.7C2476.3 3205 2666.7 3240 2857.2 3251.2C3047.7 3262.3 3238.3 3249.7 3428.8 3281.7C3619.3 3313.7 3809.7 3390.3 3904.8 3428.7L4000 3467L4000 4001L3904.8 4001C3809.7 4001 3619.3 4001 3428.8 4001C3238.3 4001 3047.7 4001 2857.2 4001C2666.7 4001 2476.3 4001 2285.8 4001C2095.3 4001 1904.7 4001 1714.2 4001C1523.7 4001 1333.3 4001 1142.8 4001C952.3 4001 761.7 4001 571.2 4001C380.7 4001 190.3 4001 95.2 4001L0 4001Z" fill="#c62368"></path><path d="M0 3362L95.2 3398.8C190.3 3435.7 380.7 3509.3 571.2 3545.8C761.7 3582.3 952.3 3581.7 1142.8 3543.7C1333.3 3505.7 1523.7 3430.3 1714.2 3407.7C1904.7 3385 2095.3 3415 2285.8 3439.5C2476.3 3464 2666.7 3483 2857.2 3493.5C3047.7 3504 3238.3 3506 3428.8 3507.2C3619.3 3508.3 3809.7 3508.7 3904.8 3508.8L4000 3509L4000 4001L3904.8 4001C3809.7 4001 3619.3 4001 3428.8 4001C3238.3 4001 3047.7 4001 2857.2 4001C2666.7 4001 2476.3 4001 2285.8 4001C2095.3 4001 1904.7 4001 1714.2 4001C1523.7 4001 1333.3 4001 1142.8 4001C952.3 4001 761.7 4001 571.2 4001C380.7 4001 190.3 4001 95.2 4001L0 4001Z" fill="#d73b67"></path><path d="M0 3688L95.2 3650.2C190.3 3612.3 380.7 3536.7 571.2 3492.2C761.7 3447.7 952.3 3434.3 1142.8 3471.3C1333.3 3508.3 1523.7 3595.7 1714.2 3632.5C1904.7 3669.3 2095.3 3655.7 2285.8 3645.8C2476.3 3636 2666.7 3630 2857.2 3635.5C3047.7 3641 3238.3 3658 3428.8 3641.8C3619.3 3625.7 3809.7 3576.3 3904.8 3551.7L4000 3527L4000 4001L3904.8 4001C3809.7 4001 3619.3 4001 3428.8 4001C3238.3 4001 3047.7 4001 2857.2 4001C2666.7 4001 2476.3 4001 2285.8 4001C2095.3 4001 1904.7 4001 1714.2 4001C1523.7 4001 1333.3 4001 1142.8 4001C952.3 4001 761.7 4001 571.2 4001C380.7 4001 190.3 4001 95.2 4001L0 4001Z" fill="#ea5767"></path><path d="M0 3655L95.2 3691.8C190.3 3728.7 380.7 3802.3 571.2 3818.7C761.7 3835 952.3 3794 1142.8 3787.3C1333.3 3780.7 1523.7 3808.3 1714.2 3807.2C1904.7 3806 2095.3 3776 2285.8 3789.5C2476.3 3803 2666.7 3860 2857.2 3844.5C3047.7 3829 3238.3 3741 3428.8 3712.2C3619.3 3683.3 3809.7 3713.7 3904.8 3728.8L4000 3744L4000 4001L3904.8 4001C3809.7 4001 3619.3 4001 3428.8 4001C3238.3 4001 3047.7 4001 2857.2 4001C2666.7 4001 2476.3 4001 2285.8 4001C2095.3 4001 1904.7 4001 1714.2 4001C1523.7 4001 1333.3 4001 1142.8 4001C952.3 4001 761.7 4001 571.2 4001C380.7 4001 190.3 4001 95.2 4001L0 4001Z" fill="#fa7268"></path></svg>